<?xml version="1.0" standalone="no"?>
<!DOCTYPE svg PUBLIC "-//W3C//DTD SVG 20010904//EN"
 "http://www.w3.org/TR/2001/REC-SVG-20010904/DTD/svg10.dtd">
<svg version="1.0" xmlns="http://www.w3.org/2000/svg"
 width="260.000000pt" height="260.000000pt" viewBox="0 0 260.000000 260.000000"
 preserveAspectRatio="xMidYMid meet">
<metadata>
Created by potrace 1.11, written by Peter Selinger 2001-2013
</metadata>
<g transform="translate(0.000000,260.000000) scale(0.100000,-0.100000)"
fill="#000000" stroke="none">
<path d="M0 1300 l0 -1300 1300 0 1300 0 0 1300 0 1300 -1300 0 -1300 0 0
-1300z m400 178 c-1 -47 -12 -58 -59 -58 l-47 0 -25 -122 -25 -123 -37 -3
c-45 -4 -45 -5 -13 141 l23 107 -49 0 c-47 0 -50 1 -44 23 3 12 6 28 6 35 0 9
34 12 135 12 101 0 135 -3 135 -12z m940 -3 c0 -8 -13 -78 -30 -155 -16 -77
-30 -143 -30 -146 0 -3 -19 -5 -42 -4 -24 0 -60 -3 -80 -6 -32 -5 -41 -2 -68
24 -67 67 -6 217 88 216 20 -1 46 -4 58 -8 19 -7 22 -3 28 35 9 55 12 59 47
59 19 0 29 -5 29 -15z m-782 -97 c-3 -28 -7 -33 -33 -36 -43 -5 -62 -26 -75
-85 -20 -90 -19 -87 -56 -87 -29 0 -34 3 -31 18 3 9 13 53 22 97 24 118 23
115 56 115 16 0 29 -4 29 -9 0 -6 12 -3 28 5 46 24 64 19 60 -18z m191 -3 c18
-17 24 -35 25 -67 l1 -43 -83 -3 c-72 -2 -83 -5 -80 -20 4 -23 60 -28 78 -8
14 18 70 22 70 5 0 -22 -22 -49 -50 -64 -64 -33 -140 -9 -160 51 -21 63 3 128
63 165 41 25 102 18 136 -16z m252 24 c33 -17 39 -49 23 -125 -22 -106 -21
-104 -60 -104 -29 0 -34 3 -30 18 14 50 27 135 22 148 -3 8 -14 14 -25 14 -32
0 -48 -32 -75 -152 -6 -24 -11 -28 -42 -28 -29 0 -34 3 -31 18 3 9 13 53 22
97 24 118 23 115 56 115 16 0 29 -4 29 -9 0 -6 12 -3 28 5 32 17 56 18 83 3z
m501 1 c21 -6 44 -21 53 -33 23 -33 19 -108 -8 -148 -48 -72 -167 -76 -203 -7
-32 61 4 155 70 184 38 16 42 16 88 4z m307 -9 c16 -16 21 -17 33 -5 7 7 27
16 44 20 24 4 37 0 59 -19 l29 -25 -18 -96 -18 -96 -34 0 c-39 0 -40 5 -19 93
15 65 12 87 -15 87 -27 0 -42 -25 -59 -103 l-17 -72 -36 -3 -36 -3 14 63 c19
92 18 118 -6 118 -31 0 -47 -32 -74 -152 -6 -24 -11 -28 -42 -28 -29 0 -34 3
-31 18 3 9 13 53 22 97 25 120 22 115 61 115 20 0 33 -4 29 -10 -3 -5 7 -3 22
5 38 20 69 19 92 -4z"/>
<path d="M1157 1332 c-23 -26 -32 -78 -17 -97 16 -19 54 -19 69 -1 19 23 29
69 20 94 -10 27 -49 30 -72 4z"/>
<path d="M638 1339 c-31 -18 -20 -29 28 -29 38 0 45 3 42 18 -4 20 -45 27 -70
11z"/>
<path d="M1427 1332 c-23 -25 -33 -78 -17 -97 36 -43 94 4 88 72 -3 32 -7 38
-29 41 -15 2 -32 -5 -42 -16z"/>
</g>
</svg>
